<?xml version="1.0" standalone="no"?>
<!DOCTYPE svg PUBLIC "-//W3C//DTD SVG 20010904//EN"
 "http://www.w3.org/TR/2001/REC-SVG-20010904/DTD/svg10.dtd">
<svg version="1.0" xmlns="http://www.w3.org/2000/svg"
 width="335.000000pt" height="335.000000pt" viewBox="0 0 335.000000 335.000000"
 preserveAspectRatio="xMidYMid meet">
<metadata>
Created by potrace 1.11, written by Peter Selinger 2001-2013
</metadata>
<g transform="translate(0.000000,335.000000) scale(0.100000,-0.100000)"
fill="#000000" stroke="none">
<path d="M0 2176 l0 -504 483 0 c265 0 488 -1 495 -1 9 -1 12 -107 12 -496 l0
-495 504 0 503 0 -1 502 -1 503 -440 2 c-242 1 -465 2 -495 2 l-55 1 0 495 1
495 -503 0 -503 0 0 -504z"/>
<path d="M1915 2443 c-62 -14 -85 -26 -85 -44 0 -10 5 -19 10 -19 6 0 19 -9
30 -20 19 -19 20 -33 20 -204 l0 -185 -26 -20 c-30 -24 -26 -50 8 -52 62 -4
144 3 153 12 7 7 2 17 -15 30 -18 15 -26 34 -30 73 -12 110 -3 109 89 -8 55
-69 91 -107 105 -108 52 -4 92 3 104 19 11 15 8 20 -25 37 -21 10 -48 31 -61
45 -46 51 -112 140 -112 149 0 16 82 82 101 82 28 0 42 25 24 43 -11 11 -31
15 -74 13 -32 -2 -64 -6 -70 -10 -16 -10 -14 -34 5 -44 13 -7 9 -16 -27 -50
-23 -23 -46 -42 -51 -42 -10 0 -10 -2 -8 168 l1 142 -23 -1 c-13 -1 -32 -3
-43 -6z"/>
<path d="M2358 2429 c-10 -5 -22 -19 -28 -29 -9 -16 -6 -25 14 -44 26 -27 56
-26 89 2 22 20 22 37 -3 62 -22 22 -46 25 -72 9z"/>
<path d="M3292 2294 c-17 -12 -33 -13 -70 -8 -101 17 -176 -4 -216 -59 -28
-39 -29 -126 -2 -156 20 -22 20 -22 -7 -47 -32 -29 -35 -67 -8 -91 20 -16 19
-17 -5 -46 -28 -33 -29 -39 -9 -76 22 -44 77 -66 165 -66 61 0 85 5 125 25 62
33 92 85 79 138 -14 59 -71 74 -204 57 -55 -6 -97 12 -92 41 5 24 0 23 55 14
59 -9 142 17 174 54 25 30 40 106 25 132 -8 15 -5 23 15 41 40 38 20 79 -25
47z m-95 -76 c27 -30 23 -106 -7 -130 -45 -36 -105 -12 -116 46 -16 86 69 144
123 84z m66 -339 c27 -42 -31 -84 -115 -82 -85 1 -124 40 -87 88 4 6 49 10
100 10 73 0 94 -3 102 -16z"/>
<path d="M1177 2281 c-59 -22 -89 -48 -115 -101 -42 -89 -13 -208 65 -259 52
-34 137 -40 189 -13 52 27 84 58 84 82 0 26 -21 25 -54 -1 -54 -43 -150 -33
-183 19 -15 25 -26 82 -16 84 4 0 61 2 126 3 64 1 120 5 124 9 20 19 4 107
-25 140 -42 46 -125 62 -195 37z m129 -83 c26 -50 15 -58 -76 -58 -81 0 -85 2
-80 40 3 23 40 58 64 62 36 6 76 -13 92 -44z"/>
<path d="M1557 2285 c-74 -19 -113 -68 -80 -100 22 -23 39 -18 77 20 63 63
126 46 126 -34 l0 -36 -59 3 c-125 7 -201 -63 -177 -164 17 -75 118 -108 199
-65 38 19 39 19 58 0 10 -10 31 -19 47 -19 54 0 96 52 55 67 -30 11 -33 24
-33 141 0 126 -12 162 -59 182 -40 16 -102 18 -154 5z m121 -252 c3 -46 0 -54
-21 -68 -39 -25 -104 -7 -113 31 -15 60 20 95 91 91 l40 -2 3 -52z"/>
<path d="M2361 2280 c-52 -17 -75 -36 -65 -52 3 -4 12 -8 19 -8 26 0 35 -38
35 -144 0 -101 -1 -107 -25 -128 -14 -12 -25 -25 -25 -29 0 -21 131 -32 175
-15 22 8 18 34 -5 41 -28 9 -32 32 -27 193 4 168 3 171 -82 142z"/>
<path d="M2750 2292 c-14 -2 -40 -15 -57 -28 l-33 -25 0 25 c0 22 -5 26 -29
26 -36 0 -92 -18 -111 -37 -13 -13 -13 -16 4 -28 10 -8 24 -16 29 -18 7 -2 12
-49 13 -117 2 -108 1 -114 -23 -138 -45 -45 -19 -59 102 -53 61 3 74 19 39 47
-24 20 -26 27 -25 95 1 104 9 136 39 160 33 25 70 21 94 -11 15 -20 18 -44 19
-124 1 -97 0 -99 -28 -122 -24 -20 -26 -25 -13 -34 17 -11 24 -12 95 -12 74 0
75 1 81 17 4 9 -3 23 -17 33 -21 17 -22 28 -25 135 -2 132 -18 174 -77 198
-37 16 -43 16 -77 11z"/>
<path d="M2338 1445 c-47 -12 -78 -30 -78 -46 0 -4 12 -14 28 -21 22 -11 28
-21 30 -56 3 -42 2 -43 -20 -35 -13 4 -48 8 -79 8 -43 0 -64 -6 -96 -27 -82
-54 -111 -183 -64 -282 43 -88 153 -115 232 -57 16 12 30 17 30 11 1 -5 2 -16
3 -22 2 -19 91 -13 121 6 31 21 32 34 1 42 -15 3 -27 16 -31 31 -3 15 -6 117
-5 227 1 111 1 206 1 212 -1 19 -23 22 -73 9z m-72 -204 c5 0 20 -10 33 -22
20 -18 22 -29 20 -110 -2 -110 -18 -139 -78 -139 -67 0 -109 66 -104 163 3 67
47 117 97 112 12 -1 26 -3 32 -4z"/>
</g>
</svg>
